# Wavefront .OBJ file for tesselated shape: link-2 path: C:\Users\dasgu\Documents\ChronoStuffs\Trials\acrobot\link.SLDPRT

g body_1
v -0.002318 -0.015000 0.022867
v 0.000000 -0.015000 0.022500
v 0.000000 0.015000 0.022500
v -0.004408 -0.015000 0.023932
v -0.002318 0.015000 0.022867
v -0.006068 -0.015000 0.025592
v -0.004408 0.015000 0.023932
v -0.007133 -0.015000 0.027682
v -0.006068 0.015000 0.025592
v -0.007500 -0.015000 0.030000
v -0.007133 0.015000 0.027682
v -0.007133 -0.015000 0.032318
v -0.007500 0.015000 0.030000
v -0.006068 -0.015000 0.034408
v -0.007133 0.015000 0.032318
v -0.004408 -0.015000 0.036068
v -0.006068 0.015000 0.034408
v -0.002318 -0.015000 0.037133
v -0.004408 0.015000 0.036068
v 0.000000 -0.015000 0.037500
v -0.002318 0.015000 0.037133
v 0.002318 -0.015000 0.037133
v 0.000000 0.015000 0.037500
v 0.004408 -0.015000 0.036068
v 0.002318 0.015000 0.037133
v 0.006068 -0.015000 0.034408
v 0.004408 0.015000 0.036068
v 0.007133 -0.015000 0.032318
v 0.006068 0.015000 0.034408
v 0.007500 -0.015000 0.030000
v 0.007133 0.015000 0.032318
v 0.007133 -0.015000 0.027682
v 0.007500 0.015000 0.030000
v 0.006068 -0.015000 0.025592
v 0.007133 0.015000 0.027682
v 0.004408 -0.015000 0.023932
v 0.006068 0.015000 0.025592
v 0.002318 -0.015000 0.022867
v 0.004408 0.015000 0.023932
v 0.002318 0.015000 0.022867
v 0.015000 0.015000 0.000000
v 0.004408 0.015000 0.023932
v 0.006068 0.015000 0.025592
v -0.015000 0.015000 0.000000
v -0.007500 0.015000 0.030000
v -0.007133 0.015000 0.027682
v 0.015000 0.015000 0.150000
v 0.004408 0.015000 0.036068
v 0.002318 0.015000 0.037133
v 0.007133 0.015000 0.032318
v 0.006068 0.015000 0.034408
v 0.007500 0.015000 0.030000
v 0.007133 0.015000 0.027682
v -0.006068 0.015000 0.025592
v -0.015000 0.015000 0.150000
v -0.007133 0.015000 0.032318
v -0.002318 0.015000 0.022867
v 0.000000 0.015000 0.022500
v -0.004408 0.015000 0.036068
v -0.006068 0.015000 0.034408
v 0.002318 0.015000 0.022867
v -0.004408 0.015000 0.023932
v 0.000000 0.015000 0.037500
v -0.002318 0.015000 0.037133
v 0.015000 -0.015000 0.000000
v 0.007133 -0.015000 0.027682
v 0.006068 -0.015000 0.025592
v 0.015000 -0.015000 0.150000
v -0.015000 -0.015000 0.150000
v 0.000000 -0.015000 0.037500
v 0.007500 -0.015000 0.030000
v 0.007133 -0.015000 0.032318
v 0.004408 -0.015000 0.036068
v 0.006068 -0.015000 0.034408
v 0.002318 -0.015000 0.037133
v -0.015000 -0.015000 0.000000
v -0.006068 -0.015000 0.025592
v -0.007133 -0.015000 0.027682
v -0.007500 -0.015000 0.030000
v -0.004408 -0.015000 0.023932
v 0.004408 -0.015000 0.023932
v 0.002318 -0.015000 0.022867
v -0.007133 -0.015000 0.032318
v -0.006068 -0.015000 0.034408
v 0.000000 -0.015000 0.022500
v -0.004408 -0.015000 0.036068
v -0.002318 -0.015000 0.037133
v -0.002318 -0.015000 0.022867
v 0.015000 -0.015000 0.150000
v 0.015000 -0.015000 0.000000
v 0.015000 0.015000 0.000000
v 0.015000 0.015000 0.150000
v -0.015000 0.015000 0.150000
v -0.015000 0.015000 0.000000
v -0.015000 -0.015000 0.000000
v -0.015000 -0.015000 0.150000
v -0.015000 -0.015000 0.150000
v 0.015000 -0.015000 0.150000
v 0.015000 0.015000 0.150000
v -0.015000 0.015000 0.150000
v -0.015000 0.015000 0.000000
v 0.015000 0.015000 0.000000
v 0.015000 -0.015000 0.000000
v -0.015000 -0.015000 0.000000
vn 0.309 0.000 0.951
vn 0.000 0.000 1.000
vn 0.000 0.000 1.000
vn 0.588 0.000 0.809
vn 0.309 0.000 0.951
vn 0.809 0.000 0.588
vn 0.588 0.000 0.809
vn 0.951 0.000 0.309
vn 0.809 0.000 0.588
vn 1.000 0.000 0.000
vn 0.951 0.000 0.309
vn 0.951 0.000 -0.309
vn 1.000 0.000 0.000
vn 0.809 0.000 -0.588
vn 0.951 0.000 -0.309
vn 0.588 0.000 -0.809
vn 0.809 0.000 -0.588
vn 0.309 0.000 -0.951
vn 0.588 0.000 -0.809
vn 0.000 0.000 -1.000
vn 0.309 0.000 -0.951
vn -0.309 0.000 -0.951
vn 0.000 0.000 -1.000
vn -0.588 0.000 -0.809
vn -0.309 0.000 -0.951
vn -0.809 0.000 -0.588
vn -0.588 0.000 -0.809
vn -0.951 0.000 -0.309
vn -0.809 0.000 -0.588
vn -1.000 0.000 0.000
vn -0.951 0.000 -0.309
vn -0.951 0.000 0.309
vn -1.000 0.000 0.000
vn -0.809 0.000 0.588
vn -0.951 0.000 0.309
vn -0.588 0.000 0.809
vn -0.809 0.000 0.588
vn -0.309 0.000 0.951
vn -0.588 0.000 0.809
vn -0.309 0.000 0.951
vn 0.000 1.000 0.000
vn 0.000 1.000 0.000
vn 0.000 1.000 0.000
vn 0.000 1.000 0.000
vn 0.000 1.000 0.000
vn 0.000 1.000 0.000
vn 0.000 1.000 0.000
vn 0.000 1.000 0.000
vn 0.000 1.000 0.000
vn 0.000 1.000 0.000
vn 0.000 1.000 0.000
vn 0.000 1.000 0.000
vn 0.000 1.000 0.000
vn 0.000 1.000 0.000
vn 0.000 1.000 0.000
vn 0.000 1.000 0.000
vn 0.000 1.000 0.000
vn 0.000 1.000 0.000
vn 0.000 1.000 0.000
vn 0.000 1.000 0.000
vn 0.000 1.000 0.000
vn 0.000 1.000 0.000
vn 0.000 1.000 0.000
vn 0.000 1.000 0.000
vn 0.000 -1.000 0.000
vn 0.000 -1.000 0.000
vn 0.000 -1.000 0.000
vn 0.000 -1.000 0.000
vn 0.000 -1.000 0.000
vn 0.000 -1.000 0.000
vn 0.000 -1.000 0.000
vn 0.000 -1.000 0.000
vn 0.000 -1.000 0.000
vn 0.000 -1.000 0.000
vn 0.000 -1.000 0.000
vn 0.000 -1.000 0.000
vn 0.000 -1.000 0.000
vn 0.000 -1.000 0.000
vn 0.000 -1.000 0.000
vn 0.000 -1.000 0.000
vn 0.000 -1.000 0.000
vn 0.000 -1.000 0.000
vn 0.000 -1.000 0.000
vn 0.000 -1.000 0.000
vn 0.000 -1.000 0.000
vn 0.000 -1.000 0.000
vn 0.000 -1.000 0.000
vn 0.000 -1.000 0.000
vn 1.000 0.000 0.000
vn 1.000 0.000 0.000
vn 1.000 0.000 0.000
vn 1.000 0.000 0.000
vn -1.000 0.000 0.000
vn -1.000 0.000 0.000
vn -1.000 0.000 0.000
vn -1.000 0.000 0.000
vn 0.000 0.000 1.000
vn 0.000 0.000 1.000
vn 0.000 0.000 1.000
vn 0.000 0.000 1.000
vn 0.000 0.000 -1.000
vn 0.000 0.000 -1.000
vn 0.000 0.000 -1.000
vn 0.000 0.000 -1.000
vt -0.3142 0.1500 0
vt 0.0000 0.1500 0
vt 0.0000 0.1200 0
vt 5.6549 0.1500 0
vt -0.3142 0.1200 0
vt 5.3407 0.1500 0
vt 5.6549 0.1200 0
vt 5.0265 0.1500 0
vt 5.3407 0.1200 0
vt 4.7124 0.1500 0
vt 5.0265 0.1200 0
vt 4.3982 0.1500 0
vt 4.7124 0.1200 0
vt 4.0841 0.1500 0
vt 4.3982 0.1200 0
vt 3.7699 0.1500 0
vt 4.0841 0.1200 0
vt 3.4558 0.1500 0
vt 3.7699 0.1200 0
vt 3.1416 0.1500 0
vt 3.4558 0.1200 0
vt 2.8274 0.1500 0
vt 3.1416 0.1200 0
vt 2.5133 0.1500 0
vt 2.8274 0.1200 0
vt 2.1991 0.1500 0
vt 2.5133 0.1200 0
vt 1.8850 0.1500 0
vt 2.1991 0.1200 0
vt 1.5708 0.1500 0
vt 1.8850 0.1200 0
vt 1.2566 0.1500 0
vt 1.5708 0.1200 0
vt 0.9425 0.1500 0
vt 1.2566 0.1200 0
vt 0.6283 0.1500 0
vt 0.9425 0.1200 0
vt 0.3142 0.1500 0
vt 0.6283 0.1200 0
vt 0.3142 0.1200 0
vt 0.1500 0.0300 0
vt 0.1261 0.0194 0
vt 0.1244 0.0211 0
vt 0.1500 0.0000 0
vt 0.1200 0.0075 0
vt 0.1223 0.0079 0
vt 0.0000 0.0300 0
vt 0.1139 0.0194 0
vt 0.1129 0.0173 0
vt 0.1177 0.0221 0
vt 0.1156 0.0211 0
vt 0.1200 0.0225 0
vt 0.1223 0.0221 0
vt 0.1244 0.0089 0
vt 0.0000 0.0000 0
vt 0.1177 0.0079 0
vt 0.1271 0.0127 0
vt 0.1275 0.0150 0
vt 0.1139 0.0106 0
vt 0.1156 0.0089 0
vt 0.1271 0.0173 0
vt 0.1261 0.0106 0
vt 0.1125 0.0150 0
vt 0.1129 0.0127 0
vt -0.1500 0.0300 0
vt -0.1223 0.0221 0
vt -0.1244 0.0211 0
vt 0.0000 0.0300 0
vt 0.0000 0.0000 0
vt -0.1125 0.0150 0
vt -0.1200 0.0225 0
vt -0.1177 0.0221 0
vt -0.1139 0.0194 0
vt -0.1156 0.0211 0
vt -0.1129 0.0173 0
vt -0.1500 0.0000 0
vt -0.1244 0.0089 0
vt -0.1223 0.0079 0
vt -0.1200 0.0075 0
vt -0.1261 0.0106 0
vt -0.1261 0.0194 0
vt -0.1271 0.0173 0
vt -0.1177 0.0079 0
vt -0.1156 0.0089 0
vt -0.1275 0.0150 0
vt -0.1139 0.0106 0
vt -0.1129 0.0127 0
vt -0.1271 0.0127 0
vt 0.0000 0.0000 0
vt -0.1500 0.0000 0
vt -0.1500 0.0300 0
vt 0.0000 0.0300 0
vt 0.0000 0.0300 0
vt 0.1500 0.0300 0
vt 0.1500 0.0000 0
vt 0.0000 0.0000 0
vt 0.0150 -0.0150 0
vt -0.0150 -0.0150 0
vt -0.0150 0.0150 0
vt 0.0150 0.0150 0
vt 0.0150 0.0150 0
vt -0.0150 0.0150 0
vt -0.0150 -0.0150 0
vt 0.0150 -0.0150 0
f 89/89/89 91/91/91 92/92/92
f 91/91/91 89/89/89 90/90/90
f 47/47/47 49/49/49 63/63/63
f 55/55/55 64/64/64 59/59/59
f 55/55/55 63/63/63 64/64/64
f 44/44/44 58/58/58 41/41/41
f 63/63/63 55/55/55 47/47/47
f 44/44/44 54/54/54 62/62/62
f 41/41/41 61/61/61 42/42/42
f 55/55/55 60/60/60 56/56/56
f 57/57/57 44/44/44 62/62/62
f 61/61/61 41/41/41 58/58/58
f 43/43/43 41/41/41 42/42/42
f 46/46/46 44/44/44 45/45/45
f 49/49/49 47/47/47 48/48/48
f 51/51/51 47/47/47 50/50/50
f 52/52/52 47/47/47 41/41/41
f 41/41/41 43/43/43 53/53/53
f 44/44/44 46/46/46 54/54/54
f 45/45/45 55/55/55 56/56/56
f 47/47/47 52/52/52 50/50/50
f 41/41/41 53/53/53 52/52/52
f 58/58/58 44/44/44 57/57/57
f 55/55/55 45/45/45 44/44/44
f 60/60/60 55/55/55 59/59/59
f 47/47/47 51/51/51 48/48/48
f 93/93/93 95/95/95 96/96/96
f 95/95/95 93/93/93 94/94/94
f 76/76/76 78/78/78 79/79/79
f 70/70/70 68/68/68 69/69/69
f 66/66/66 65/65/65 71/71/71
f 71/71/71 68/68/68 72/72/72
f 74/74/74 68/68/68 73/73/73
f 68/68/68 70/70/70 75/75/75
f 65/65/65 82/82/82 85/85/85
f 69/69/69 84/84/84 86/86/86
f 76/76/76 88/88/88 80/80/80
f 69/69/69 87/87/87 70/70/70
f 76/76/76 85/85/85 88/88/88
f 69/69/69 79/79/79 83/83/83
f 87/87/87 69/69/69 86/86/86
f 65/65/65 67/67/67 81/81/81
f 85/85/85 76/76/76 65/65/65
f 67/67/67 65/65/65 66/66/66
f 84/84/84 69/69/69 83/83/83
f 68/68/68 74/74/74 72/72/72
f 82/82/82 65/65/65 81/81/81
f 77/77/77 76/76/76 80/80/80
f 79/79/79 69/69/69 76/76/76
f 68/68/68 75/75/75 73/73/73
f 68/68/68 71/71/71 65/65/65
f 78/78/78 76/76/76 77/77/77
f 99/99/99 97/97/97 98/98/98
f 97/97/97 99/99/99 100/100/100
f 101/101/101 103/103/103 104/104/104
f 103/103/103 101/101/101 102/102/102
f 1/1/1 3/3/3 5/5/5
f 4/4/4 5/5/5 7/7/7
f 6/6/6 7/7/7 9/9/9
f 8/8/8 9/9/9 11/11/11
f 10/10/10 11/11/11 13/13/13
f 12/12/12 13/13/13 15/15/15
f 14/14/14 15/15/15 17/17/17
f 16/16/16 17/17/17 19/19/19
f 18/18/18 19/19/19 21/21/21
f 20/20/20 21/21/21 23/23/23
f 22/22/22 23/23/23 25/25/25
f 24/24/24 25/25/25 27/27/27
f 26/26/26 27/27/27 29/29/29
f 28/28/28 29/29/29 31/31/31
f 30/30/30 31/31/31 33/33/33
f 32/32/32 33/33/33 35/35/35
f 34/34/34 35/35/35 37/37/37
f 36/36/36 37/37/37 39/39/39
f 38/38/38 39/39/39 40/40/40
f 2/2/2 40/40/40 3/3/3
f 40/40/40 2/2/2 38/38/38
f 39/39/39 38/38/38 36/36/36
f 37/37/37 36/36/36 34/34/34
f 35/35/35 34/34/34 32/32/32
f 33/33/33 32/32/32 30/30/30
f 31/31/31 30/30/30 28/28/28
f 29/29/29 28/28/28 26/26/26
f 27/27/27 26/26/26 24/24/24
f 25/25/25 24/24/24 22/22/22
f 23/23/23 22/22/22 20/20/20
f 21/21/21 20/20/20 18/18/18
f 19/19/19 18/18/18 16/16/16
f 17/17/17 16/16/16 14/14/14
f 15/15/15 14/14/14 12/12/12
f 13/13/13 12/12/12 10/10/10
f 11/11/11 10/10/10 8/8/8
f 9/9/9 8/8/8 6/6/6
f 7/7/7 6/6/6 4/4/4
f 5/5/5 4/4/4 1/1/1
f 3/3/3 1/1/1 2/2/2
